<?xml version="1.0" encoding="UTF-8" standalone="no"?>
<svg width="32px" height="140px" viewBox="0 0 32 140" version="1.1" xmlns="http://www.w3.org/2000/svg" xmlns:xlink="http://www.w3.org/1999/xlink" xmlns:sketch="http://www.bohemiancoding.com/sketch/ns">
    <!-- Generator: Sketch 3.3.2 (12043) - http://www.bohemiancoding.com/sketch -->
    <title>exclamation-mark</title>
    <desc>Created with Sketch.</desc>
    <defs></defs>
    <g id="Page-1" stroke="none" stroke-width="1" fill="none" fill-rule="evenodd" sketch:type="MSPage">
        <path d="M29.015625,14.8085938 C29.015625,16.826833 28.9505215,18.6497314 28.8203125,20.2773438 C28.6901035,21.9049561 28.4296895,24.4765449 28.0390625,27.9921875 L20.421875,91.9570312 L11.6328125,91.9570312 L4.015625,27.9921875 C3.36458008,22.2629922 3.0390625,17.8685049 3.0390625,14.8085938 C3.0390625,9.86065234 4.34113281,6.21485547 6.9453125,3.87109375 C9.54949219,1.52733203 12.5117021,0.35546875 15.8320312,0.35546875 C19.6080918,0.35546875 22.7493364,1.54360791 25.2558594,3.91992188 C27.7623823,6.29623584 29.015625,9.92575684 29.015625,14.8085938 L29.015625,14.8085938 Z M31.359375,123.988281 C31.359375,128.285178 29.8619941,131.898423 26.8671875,134.828125 C23.8723809,137.757827 20.2591357,139.222656 16.0273438,139.222656 C11.8606563,139.222656 8.27996289,137.757827 5.28515625,134.828125 C2.29034961,131.898423 0.79296875,128.285178 0.79296875,123.988281 C0.79296875,119.691385 2.25779785,116.045588 5.1875,113.050781 C8.11720215,110.055975 11.7304473,108.558594 16.0273438,108.558594 C20.3242402,108.558594 23.9537612,110.039699 26.9160156,113.001953 C29.87827,115.964208 31.359375,119.62628 31.359375,123.988281 L31.359375,123.988281 Z" id="exclamation-mark" fill="#BAE6FF" sketch:type="MSShapeGroup"></path>
    </g>
</svg>