<?xml version="1.0" encoding="UTF-8" standalone="no"?>
<svg width="231px" height="40px" viewBox="0 0 231 40" version="1.1" xmlns="http://www.w3.org/2000/svg" xmlns:xlink="http://www.w3.org/1999/xlink" xmlns:sketch="http://www.bohemiancoding.com/sketch/ns">
    <!-- Generator: Sketch 3.3.2 (12043) - http://www.bohemiancoding.com/sketch -->
    <title>realsense</title>
    <desc>Created with Sketch.</desc>
    <defs></defs>
    <g id="Page-1" stroke="none" stroke-width="1" fill="none" fill-rule="evenodd" sketch:type="MSPage">
        <g id="realsense" sketch:type="MSLayerGroup">
            <path d="M52.4013333,10.1466667 C52.4013333,9.99866667 52.312,9.95066667 52.1093333,9.95066667 L51.9706667,9.95066667 L51.9166667,9.95066667 L51.9166667,10.374 C51.946,10.374 52.088,10.38 52.1093333,10.38 C52.312,10.38 52.4013333,10.314 52.4013333,10.172 L52.4013333,10.1466667 L52.4013333,10.1466667 Z M52.7026667,11.204 L52.4726667,11.204 C52.452,11.204 52.4326667,11.1913333 52.426,11.174 L52.1093333,10.6426667 C52.106,10.632 52.078,10.6193333 52.066,10.6193333 L51.978,10.6193333 L51.9273333,10.6193333 L51.9273333,11.1466667 C51.9273333,11.174 51.9066667,11.204 51.8713333,11.204 L51.664,11.204 C51.6346667,11.204 51.6133333,11.174 51.6133333,11.1466667 L51.6133333,9.812 C51.6133333,9.73533333 51.6393333,9.702 51.7086667,9.692 C51.7813333,9.68333333 51.978,9.67733333 52.088,9.67733333 C52.4693333,9.67733333 52.698,9.79 52.698,10.1466667 L52.698,10.172 C52.698,10.3953333 52.5886667,10.5126667 52.4173333,10.568 L52.7433333,11.1193333 C52.7466667,11.1293333 52.7513333,11.1466667 52.7513333,11.1566667 C52.7513333,11.178 52.7393333,11.204 52.7026667,11.204 L52.7026667,11.204 Z M52.1553333,9.436 C51.5906667,9.436 51.1353333,9.90133333 51.1353333,10.4666667 C51.1353333,11.0306667 51.5906667,11.488 52.1553333,11.488 C52.7206667,11.488 53.1826667,11.0306667 53.1826667,10.4666667 C53.1826667,9.90133333 52.7206667,9.436 52.1553333,9.436 L52.1553333,9.436 Z M52.1553333,11.7013333 C51.47,11.7013333 50.9226667,11.1466667 50.9226667,10.4666667 C50.9226667,9.786 51.47,9.23066667 52.1553333,9.23066667 C52.838,9.23066667 53.3946667,9.786 53.3946667,10.4666667 C53.3946667,11.1466667 52.838,11.7013333 52.1553333,11.7013333 L52.1553333,11.7013333 Z M20.2033333,16.7626667 C21.1053333,16.7626667 21.4806667,17.2093333 21.4806667,17.9333333 L21.4806667,26.4426667 L24.5573333,26.4426667 L24.5573333,17.9193333 C24.5573333,16.1893333 23.6373333,14.2833333 20.9353333,14.2833333 L14.5766667,14.278 L14.5766667,26.4426667 L17.6546667,26.4426667 L17.6546667,16.7626667 L20.2033333,16.7626667 L20.2033333,16.7626667 Z M38.6033333,16.6186667 C37.55,16.6186667 36.736,17.1593333 36.3966667,17.8946667 C36.194,18.3333333 36.126,18.6726667 36.104,19.2133333 L40.84,19.2133333 C40.7826667,17.8946667 40.1846667,16.6186667 38.6033333,16.6186667 L38.6033333,16.6186667 Z M36.104,21.3106667 C36.104,22.8873333 37.0813333,24.0446667 38.832,24.0446667 C40.1913333,24.0446667 40.8693333,23.668 41.6553333,22.8873333 L43.5573333,24.7006667 C42.3393333,25.9046667 41.0613333,26.6366667 38.8073333,26.6366667 C35.8593333,26.6366667 33.036,25.028 33.036,20.3393333 C33.036,16.3373333 35.5026667,14.0706667 38.7373333,14.0706667 C42.0206667,14.0706667 43.9146667,16.7226667 43.9146667,20.2006667 L43.9146667,21.3106667 L36.104,21.3106667 L36.104,21.3106667 Z M30.436,26.4246667 L32.2553333,26.4246667 L32.2553333,23.8593333 L31.0066667,23.8593333 C30.274,23.8593333 29.9393333,23.4673333 29.9393333,22.762 L29.9393333,16.7626667 L32.2553333,16.7626667 L32.2553333,14.278 L29.9393333,14.278 L29.9393333,10.9613333 L26.8593333,10.9613333 L26.8593333,22.956 C26.8593333,24.678 27.926,26.4246667 30.436,26.4246667 L30.436,26.4246667 Z M8.73266667,12.5946667 L11.832,12.5946667 L11.832,9.65 L8.73266667,9.65 L8.73266667,12.5946667 L8.73266667,12.5946667 Z M11.8413333,14.278 L8.73266667,14.278 L8.72866667,23.3126667 C8.72866667,24.9346667 9.51933333,26.3466667 11.8413333,26.5693333 L11.8413333,14.278 L11.8413333,14.278 Z M48.8126667,9.23066667 L45.7073333,9.23066667 L45.7073333,23.0546667 C45.7073333,24.678 46.494,26.0866667 48.8126667,26.3113333 L48.8126667,9.23066667 L48.8126667,9.23066667 Z M59.6633333,11.226 C56.852,-2.48733333 30.2266667,-3.358 13.0633333,7.09066667 L13.0633333,8.244 C30.206,-0.566666667 54.524,-0.514666667 56.7406667,12.118 C57.4806667,16.296 55.128,20.6506667 50.9226667,23.1553333 L50.9226667,26.4293333 C55.982,24.576 61.172,18.576 59.6633333,11.226 L59.6633333,11.226 Z M28.4673333,35.2273333 C16.6226667,36.322 4.28066667,34.602 2.554,25.3466667 C1.70733333,20.7846667 3.78866667,15.9466667 6.54533333,12.9426667 L6.54533333,11.334 C1.57933333,15.69 -1.11333333,21.2013333 0.438666667,27.7126667 C2.41733333,36.062 13.0093333,40.792 29.1773333,39.2213333 C35.576,38.6006667 43.9473333,36.5386667 49.772,33.346 L49.772,28.806 C44.486,31.9526667 35.7486667,34.5533333 28.4673333,35.2273333 L28.4673333,35.2273333 Z M128.523333,27.488 L138.354,27.488 L138.354,29.8506667 L125.712667,29.8506667 L125.712667,9.23066667 L128.523333,9.23066667 L128.523333,27.488 L128.523333,27.488 Z M109.694667,21.8413333 L116.834667,21.8413333 L113.25,12.188 L109.694667,21.8413333 L109.694667,21.8413333 Z M117.674667,24.1413333 L108.857333,24.1413333 L106.764,29.8506667 L104.046,29.8506667 L111.936,9.23066667 L114.834,9.23066667 L122.724,29.8506667 L119.764667,29.8506667 L117.674667,24.1413333 L117.674667,24.1413333 Z M91.4353333,20.6473333 L91.4353333,27.488 L101.896,27.488 L101.896,29.8506667 L88.626,29.8506667 L88.626,9.23066667 L101.896,9.23066667 L101.896,11.59 L91.4353333,11.59 L91.4353333,18.2846667 L100.22,18.2846667 L100.22,20.6473333 L91.4353333,20.6473333 L91.4353333,20.6473333 Z M81.334,15.2086667 C81.334,13.9526667 80.974,13.036 80.258,12.4573333 C79.5426667,11.8793333 78.4153333,11.59 76.8806667,11.59 L72.9973333,11.59 L72.9973333,19.0313333 L76.7906667,19.0313333 C78.206,19.0313333 79.3173333,18.7246667 80.1246667,18.106 C80.9306667,17.4893333 81.334,16.52 81.334,15.2086667 L81.334,15.2086667 Z M84.1433333,15.1166667 C84.1433333,15.8946667 84.0253333,16.6113333 83.7833333,17.2693333 C83.5453333,17.9266667 83.2026667,18.5086667 82.7546667,19.0173333 C82.3053333,19.5253333 81.772,19.944 81.1566667,20.272 C80.5366667,20.6026667 79.86,20.8246667 79.1233333,20.9433333 L85.578,29.8506667 L82.2013333,29.8506667 L77.0326667,22.2893333 C76.7726667,21.9113333 76.522,21.6573333 76.2833333,21.5286667 C76.0453333,21.3973333 75.6973333,21.3346667 75.2386667,21.3346667 L72.9973333,21.3346667 L72.9973333,29.8506667 L70.3073333,29.8506667 L70.3073333,9.23066667 L77.0326667,9.23066667 C79.262,9.23066667 81.0046667,9.734 82.2606667,10.7393333 C83.5146667,11.7446667 84.1433333,13.2046667 84.1433333,15.1166667 L84.1433333,15.1166667 Z" id="Shape" fill="#127CC2" sketch:type="MSShapeGroup"></path>
            <path d="M227.916,11.59 L227.916,9.23066667 L228.462,9.23066667 L229.17,10.5593333 L229.856,9.23066667 L230.4,9.23066667 L230.4,11.59 L229.927333,11.59 L229.927333,9.932 L229.38,11.0306667 L228.95,11.0306667 L228.388667,9.98066667 L228.388667,11.59 L227.916,11.59 L227.916,11.59 Z M226.144,11.59 L226.144,9.65133333 L225.320667,9.65133333 L225.320667,9.23066667 L227.458667,9.23066667 L227.458667,9.65133333 L226.642667,9.65133333 L226.642667,11.59 L226.144,11.59 L226.144,11.59 Z M222.364667,37.638 L222.364667,39.4173333 L221.736,39.4173333 L221.736,37.638 L220.109333,34.802 L220.798667,34.802 L222.07,37.0893333 L223.334,34.802 L224.003333,34.802 L222.364667,37.638 L222.364667,37.638 Z M214.537333,38.9493333 C214.829333,38.9493333 215.070667,38.9193333 215.268,38.856 L215.268,37.584 L214.204667,37.584 L214.204667,37.0766667 L215.864,37.0766667 L215.864,39.2226667 C215.782667,39.2726667 215.688667,39.3146667 215.578,39.3526667 C215.470667,39.3873333 215.352667,39.4166667 215.224667,39.4413333 C215.096667,39.4653333 214.966667,39.4846667 214.829333,39.4966667 C214.694667,39.5106667 214.564,39.5173333 214.438,39.5173333 C214.09,39.5173333 213.774667,39.4673333 213.490667,39.3646667 C213.206667,39.2613333 212.965333,39.11 212.761333,38.906 C212.558667,38.702 212.401333,38.45 212.292,38.1473333 C212.184,37.844 212.128667,37.4926667 212.128667,37.096 C212.128667,36.7126667 212.184,36.372 212.292,36.076 C212.401333,35.7793333 212.558667,35.528 212.76,35.324 C212.96,35.1173333 213.2,34.9633333 213.484,34.8593333 C213.768,34.7533333 214.084667,34.702 214.431333,34.702 C214.708667,34.702 214.966667,34.7353333 215.205333,34.8046667 C215.444,34.874 215.647333,34.976 215.818,35.1093333 L215.536,35.5853333 C215.233333,35.3753333 214.876,35.2713333 214.464,35.2713333 C213.918667,35.2713333 213.506,35.426 213.216667,35.7393333 C212.929333,36.0513333 212.784,36.5086667 212.784,37.1153333 C212.784,38.338 213.368,38.9493333 214.537333,38.9493333 L214.537333,38.9493333 Z M204.031333,37.11 C204.031333,37.6933333 204.166667,38.1473333 204.436667,38.468 C204.706667,38.7893333 205.077333,38.9493333 205.552,38.9493333 C206.024667,38.9493333 206.394,38.7893333 206.666,38.468 C206.936,38.1473333 207.07,37.6933333 207.07,37.11 C207.07,36.526 206.936,36.0733333 206.666,35.7513333 C206.394,35.4293333 206.024667,35.2713333 205.552,35.2713333 C205.077333,35.2713333 204.706667,35.4293333 204.436667,35.7513333 C204.166667,36.0733333 204.031333,36.526 204.031333,37.11 L204.031333,37.11 Z M203.374667,37.11 C203.374667,36.7446667 203.426667,36.4113333 203.528667,36.114 C203.634,35.8126667 203.778,35.5613333 203.967333,35.3546667 C204.157333,35.146 204.384667,34.9873333 204.654667,34.872 C204.923333,34.7573333 205.22,34.702 205.552,34.702 C205.881333,34.702 206.180667,34.7573333 206.449333,34.872 C206.714667,34.9873333 206.943333,35.146 207.134,35.3546667 C207.322667,35.5613333 207.469333,35.8126667 207.571333,36.114 C207.675333,36.4113333 207.726,36.7446667 207.726,37.11 C207.726,37.48 207.675333,37.8133333 207.571333,38.1093333 C207.469333,38.4073333 207.322667,38.6586667 207.134,38.8646667 C206.943333,39.0726667 206.714667,39.2346667 206.449333,39.348 C206.180667,39.462 205.881333,39.5173333 205.552,39.5173333 C205.22,39.5173333 204.923333,39.462 204.654667,39.348 C204.384667,39.2346667 204.157333,39.0726667 203.967333,38.8646667 C203.778,38.6586667 203.634,38.4073333 203.528667,38.1093333 C203.426667,37.8133333 203.374667,37.48 203.374667,37.11 L203.374667,37.11 Z M197.085333,38.8886667 L199.286667,38.8886667 L199.286667,39.4173333 L196.456667,39.4173333 L196.456667,34.802 L197.085333,34.802 L197.085333,38.8886667 L197.085333,38.8886667 Z M188.202667,37.11 C188.202667,37.6933333 188.338,38.1473333 188.606667,38.468 C188.878,38.7893333 189.248,38.9493333 189.720667,38.9493333 C190.193333,38.9493333 190.565333,38.7893333 190.837333,38.468 C191.107333,38.1473333 191.240667,37.6933333 191.240667,37.11 C191.240667,36.526 191.107333,36.0733333 190.837333,35.7513333 C190.565333,35.4293333 190.193333,35.2713333 189.720667,35.2713333 C189.248,35.2713333 188.878,35.4293333 188.606667,35.7513333 C188.338,36.0733333 188.202667,36.526 188.202667,37.11 L188.202667,37.11 Z M187.546667,37.11 C187.546667,36.7446667 187.596667,36.4113333 187.699333,36.114 C187.802667,35.8126667 187.95,35.5613333 188.138667,35.3546667 C188.329333,35.146 188.558,34.9873333 188.826667,34.872 C189.092,34.7573333 189.391333,34.702 189.720667,34.702 C190.052667,34.702 190.352667,34.7573333 190.618,34.872 C190.887333,34.9873333 191.116,35.146 191.305333,35.3546667 C191.495333,35.5613333 191.641333,35.8126667 191.741333,36.114 C191.846,36.4113333 191.897333,36.7446667 191.897333,37.11 C191.897333,37.48 191.846,37.8133333 191.741333,38.1093333 C191.641333,38.4073333 191.495333,38.6586667 191.305333,38.8646667 C191.116,39.0726667 190.887333,39.2346667 190.618,39.348 C190.352667,39.462 190.052667,39.5173333 189.720667,39.5173333 C189.391333,39.5173333 189.092,39.462 188.826667,39.348 C188.558,39.2346667 188.329333,39.0726667 188.138667,38.8646667 C187.95,38.6586667 187.802667,38.4073333 187.699333,38.1093333 C187.596667,37.8133333 187.546667,37.48 187.546667,37.11 L187.546667,37.11 Z M180.129333,34.802 L182.386,38.502 L182.386,34.802 L182.986,34.802 L182.986,39.4173333 L182.305333,39.4173333 L180.05,35.746 L180.05,39.4173333 L179.446667,39.4173333 L179.446667,34.802 L180.129333,34.802 L180.129333,34.802 Z M173.628667,39.4173333 L173.628667,37.3433333 L171.352667,37.3433333 L171.352667,39.4173333 L170.724,39.4173333 L170.724,34.802 L171.352667,34.802 L171.352667,36.8166667 L173.628667,36.8166667 L173.628667,34.802 L174.257333,34.802 L174.257333,39.4173333 L173.628667,39.4173333 L173.628667,39.4173333 Z M166.163333,39.0633333 C166.002,39.202 165.803333,39.3133333 165.566667,39.396 C165.328667,39.478 165.059333,39.5173333 164.752667,39.5173333 C164.382,39.5173333 164.06,39.4546667 163.786667,39.3266667 C163.516667,39.2006667 163.287333,39.0273333 163.108,38.8093333 C162.927333,38.5906667 162.792667,38.334 162.706,38.04 C162.620667,37.7453333 162.576,37.4306667 162.576,37.096 C162.576,36.7166667 162.628,36.38 162.733333,36.084 C162.838667,35.7866667 162.986667,35.5353333 163.182,35.3293333 C163.374667,35.126 163.608,34.9686667 163.88,34.8613333 C164.153333,34.7553333 164.457333,34.702 164.791333,34.702 C165.073333,34.702 165.322667,34.74 165.544667,34.8126667 C165.766,34.886 165.953333,34.9873333 166.116667,35.1173333 L165.827333,35.5853333 C165.686667,35.4826667 165.534,35.4033333 165.373333,35.3513333 C165.212,35.2973333 165.026667,35.2713333 164.818667,35.2713333 C164.318667,35.2713333 163.93,35.4273333 163.651333,35.746 C163.370667,36.0613333 163.232,36.514 163.232,37.1026667 C163.232,37.6966667 163.370667,38.152 163.651333,38.4706667 C163.93,38.79 164.306,38.9493333 164.784667,38.9493333 C165.002667,38.9493333 165.202,38.92 165.383333,38.8586667 C165.563333,38.798 165.724667,38.7113333 165.868667,38.594 L166.163333,39.0633333 L166.163333,39.0633333 Z M155.522667,37.3573333 L155.522667,38.8886667 L157.864,38.8886667 L157.864,39.4173333 L154.894,39.4173333 L154.894,34.802 L157.864,34.802 L157.864,35.3293333 L155.522667,35.3293333 L155.522667,36.8293333 L157.49,36.8293333 L157.49,37.3573333 L155.522667,37.3573333 L155.522667,37.3573333 Z M148.754667,35.3293333 L148.754667,39.4173333 L148.124667,39.4173333 L148.124667,35.3293333 L146.539333,35.3293333 L146.539333,34.802 L150.329333,34.802 L150.329333,35.3293333 L148.754667,35.3293333 L148.754667,35.3293333 Z M146.400667,26.9526667 C145.521333,27.548 144.328,27.8466667 142.812,27.8466667 C142.474,27.8466667 142.145333,27.8253333 141.822667,27.794 L141.822667,20.3593333 L144.666667,21.124 C145.66,21.402 146.418667,21.77 146.936667,22.2286667 C147.454,22.688 147.714,23.3653333 147.714,24.2593333 C147.714,25.4573333 147.274,26.3546667 146.400667,26.9526667 L146.400667,26.9526667 Z M150.196,22.0506667 C149.955333,21.4733333 149.622667,20.9673333 149.193333,20.5433333 C148.764,20.112 148.252667,19.754 147.653333,19.4646667 C147.056,19.1766667 146.400667,18.9326667 145.682,18.7333333 L141.886667,17.658 C141.862667,17.6506667 141.845333,17.6433333 141.822667,17.6366667 L141.822667,11.412 C142.364667,11.2953333 142.964,11.2326667 143.618667,11.2326667 C145.63,11.2326667 147.376,11.7393333 148.850667,12.7573333 L150.044,10.784 C149.15,10.108 148.114,9.602 146.936667,9.27466667 C145.761333,8.946 144.577333,8.78 143.38,8.78 C142.838,8.78 142.316667,8.816 141.822667,8.88466667 L141.822667,0.102666667 L141.192667,0.102666667 L141.192667,39.4133333 L141.822667,39.4133333 L141.822667,30.2486667 C142.196667,30.28 142.576667,30.2986667 142.964,30.2986667 C144.177333,30.2986667 145.258,30.1446667 146.205333,29.8366667 C147.150667,29.528 147.940667,29.0986667 148.582,28.5493333 C149.217333,28.0033333 149.706,27.3493333 150.044,26.592 C150.381333,25.8366667 150.553333,24.9986667 150.553333,24.082 C150.553333,23.3046667 150.432,22.6293333 150.196,22.0506667 L150.196,22.0506667 Z M213.544667,20.6473333 L213.544667,27.4873333 L224.003333,27.4873333 L224.003333,29.8506667 L210.736667,29.8506667 L210.736667,9.23066667 L224.003333,9.23066667 L224.003333,11.592 L213.544667,11.592 L213.544667,18.2833333 L222.332667,18.2833333 L222.332667,20.6473333 L213.544667,20.6473333 L213.544667,20.6473333 Z M199.62,11.2326667 C198.246,11.2326667 197.118667,11.4906667 196.244,12.0093333 C195.365333,12.5266667 194.929333,13.374 194.929333,14.5486667 C194.929333,15.2466667 195.138667,15.86 195.556,16.3866667 C195.975333,16.916 196.752667,17.3386667 197.887333,17.658 L201.682667,18.7333333 C202.399333,18.9326667 203.057333,19.1766667 203.654,19.4646667 C204.25,19.7553333 204.766,20.112 205.196667,20.5433333 C205.622,20.9673333 205.956,21.4733333 206.196,22.0506667 C206.433333,22.6293333 206.552,23.3046667 206.552,24.082 C206.552,24.9986667 206.384,25.8366667 206.045333,26.592 C205.706667,27.352 205.22,28.0033333 204.580667,28.5493333 C203.943333,29.0986667 203.152667,29.528 202.205333,29.8366667 C201.259333,30.1446667 200.178667,30.2986667 198.963333,30.2986667 C197.53,30.2986667 196.157333,30.0793333 194.854,29.6406667 C193.548,29.2026667 192.417333,28.5653333 191.462667,27.7266667 L192.836667,25.726 C193.734,26.422 194.669333,26.9526667 195.648,27.3106667 C196.622667,27.668 197.678,27.8466667 198.815333,27.8466667 C200.326667,27.8466667 201.523333,27.548 202.399333,26.9526667 C203.274667,26.3546667 203.716,25.4573333 203.716,24.2593333 C203.716,23.3653333 203.456667,22.688 202.936667,22.2286667 C202.420667,21.77 201.663333,21.402 200.665333,21.124 L196.780667,20.0786667 C195.226667,19.6586667 194.052667,19.0073333 193.256,18.1206667 C192.458667,17.2346667 192.06,16.1033333 192.06,14.7286667 C192.06,13.792 192.24,12.9553333 192.597333,12.2173333 C192.956,11.4813333 193.458,10.8586667 194.107333,10.3506667 C194.755333,9.84066667 195.526667,9.454 196.424,9.18533333 C197.318,8.916 198.306667,8.78 199.380667,8.78 C200.577333,8.78 201.760667,8.946 202.936667,9.27466667 C204.114667,9.602 205.150667,10.108 206.045333,10.784 L204.850667,12.7573333 C203.374667,11.7393333 201.632,11.2326667 199.62,11.2326667 L199.62,11.2326667 Z M174.936,9.23066667 L185.008667,25.7553333 L185.008667,9.23066667 L187.696667,9.23066667 L187.696667,29.8506667 L184.648667,29.8506667 L174.579333,13.4433333 L174.579333,29.8506667 L171.889333,29.8506667 L171.889333,9.23066667 L174.936,9.23066667 L174.936,9.23066667 Z M157.547333,20.6473333 L157.547333,27.4873333 L168.004,27.4873333 L168.004,29.8506667 L154.736,29.8506667 L154.736,9.23066667 L168.004,9.23066667 L168.004,11.592 L157.547333,11.592 L157.547333,18.2846667 L166.330667,18.2846667 L166.330667,20.6473333 L157.547333,20.6473333 L157.547333,20.6473333 Z" id="Shape" fill="#00ACEC" sketch:type="MSShapeGroup"></path>
        </g>
    </g>
</svg>