<?xml version="1.0" encoding="UTF-8" standalone="no"?>
<svg width="101px" height="40px" viewBox="0 0 101 40" version="1.1" xmlns="http://www.w3.org/2000/svg" xmlns:xlink="http://www.w3.org/1999/xlink" xmlns:sketch="http://www.bohemiancoding.com/sketch/ns">
    <!-- Generator: Sketch 3.3.2 (12043) - http://www.bohemiancoding.com/sketch -->
    <title>webchallenge</title>
    <desc>Created with Sketch.</desc>
    <defs></defs>
    <g id="Page-1" stroke="none" stroke-width="1" fill="none" fill-rule="evenodd" sketch:type="MSPage">
        <g id="webchallenge" sketch:type="MSLayerGroup">
            <path d="M0.0920689655,11.8626437 C7.67609195,7.92735632 15.2787356,4.03114943 22.8695402,0.110344828 C22.8712644,1.26034483 22.8678161,2.41034483 22.8712644,3.56137931 C16.9344828,6.52252874 11.0155172,9.5162069 5.08264368,12.4828736 C4.60505747,12.7212644 4.11678161,12.9442529 3.66436782,13.2274713 C10.072069,16.4017241 16.4522989,19.637931 22.8695402,22.7941379 C22.8695402,23.9491954 22.8695402,25.1048276 22.8678161,26.2593103 C15.285977,22.3402299 7.68678161,18.4537931 0.0971264368,14.5486207 C0.085862069,13.654023 0.0954022989,12.7572414 0.0920689655,11.8626437 L0.0920689655,11.8626437 Z" id="Shape" fill="#78B4E5" sketch:type="MSShapeGroup"></path>
            <path d="M77.7873563,13.7875862 C85.3954023,17.6673563 93.0003448,21.5594253 100.605172,25.4436782 C100.605172,26.3843678 100.605172,27.3237931 100.602874,28.2644828 C92.9991954,32.1489655 85.3988506,36.0556322 77.784023,39.925977 C77.7828736,38.7817241 77.7851724,37.6372414 77.7828736,36.4944828 C84.2449425,33.2965517 90.698046,30.0756322 97.1670115,26.8882759 C90.716092,23.6562069 84.2494253,20.4543678 77.7873563,17.2441379 C77.7828736,16.0924138 77.7795402,14.9408046 77.7873563,13.7875862 L77.7873563,13.7875862 Z" id="Shape" fill="#78B4E5" sketch:type="MSShapeGroup"></path>
            <path d="M36.6701149,7.09551724 C37.632069,7.03770115 38.5951724,7.04 39.5571264,7.09724138 C39.5582759,10.8003448 39.5526437,14.5021839 39.5604598,18.2022989 C39.6031034,19.7950575 39.7872414,21.5174713 40.8154023,22.8082759 C42.4363218,24.885977 46.1191954,24.676092 47.5132184,22.4434483 C48.566092,20.818046 48.5088506,18.8022989 48.5368966,16.943908 C48.5368966,13.6596552 48.5335632,10.3748276 48.5368966,7.08988506 C49.3417241,7.0916092 50.1454023,7.0937931 50.9513793,7.08816092 C50.9558621,11.0316092 50.9558621,14.973908 50.9513793,18.9165517 C50.873908,20.8849425 50.3373563,22.9668966 48.9106897,24.4026437 C47.6826437,25.6677011 45.8844828,26.2233333 44.1547126,26.2570115 C42.5865517,26.3116092 40.9410345,25.9831034 39.6726437,25.0162069 C38.9721839,24.5093103 38.4737931,23.7864368 38.0394253,23.0501149 C37.33,24.4610345 35.9796552,25.4948276 34.4710345,25.9213793 C32.6705747,26.44 30.6871264,26.3968966 28.9421839,25.6822989 C27.3381609,24.9937931 26.192069,23.4922989 25.7228736,21.834023 C25.4775862,20.8850575 25.1941379,19.9303448 25.2014943,18.9413793 C25.1952874,14.9897701 25.1952874,11.04 25.2014943,7.08827586 C26.025977,7.0916092 26.8481609,7.09551724 27.6732184,7.08827586 C27.6855172,10.6117241 27.6765517,14.1366667 27.6765517,17.6624138 C27.736092,19.371954 27.7927586,21.2267816 28.8472414,22.6635632 C30.4148276,24.9089655 34.3047126,24.7271264 35.6943678,22.38 C36.7651724,20.6516092 36.6697701,18.5352874 36.6687356,16.5821839 C36.6701149,13.4212644 36.6689655,10.2591954 36.6701149,7.09551724 Z M64.0890805,7.35758621 C66.0421839,6.98494253 68.0491954,6.85195402 70.0304598,7.03597701 C71.3695402,7.15321839 72.7434483,7.57252874 73.7110345,8.54908046 C74.8065517,9.52678161 75.1085057,11.1482759 74.7773563,12.5356322 C74.4047126,13.9666667 73.1912644,15.0536782 71.8162069,15.5162069 C73.3506897,15.8922989 74.7785057,16.948046 75.313908,18.4735632 C75.845977,20.066092 75.59,21.9575862 74.5001149,23.2601149 C73.5471264,24.4644828 72.0317241,25.0145977 70.5612644,25.2452874 C68.4218391,25.5634483 66.2396552,25.4690805 64.0957471,25.2306897 C64.0834483,19.2742529 64.0924138,13.3162069 64.0890805,7.35758621 Z M66.4844828,8.95770115 C66.4844828,10.8956322 66.4878161,12.8335632 66.4844828,14.7731034 C68.1266667,14.7277011 69.9821839,15.0521839 71.3852874,13.9772414 C72.8670115,12.9637931 72.9242529,10.4057471 71.3494253,9.45333333 C69.8901149,8.59632184 68.0974713,8.75287356 66.4844828,8.95770115 L66.4844828,8.95770115 Z M66.4844828,16.5836782 C66.4878161,18.8870115 66.4844828,21.1908046 66.4844828,23.4934483 C68.2152874,23.6562069 70.1224138,23.7601149 71.6602299,22.8064368 C73.5134483,21.6801149 73.5291954,18.5872414 71.7062069,17.4250575 C70.1685057,16.3890805 68.2411494,16.5914943 66.4844828,16.5836782 Z M52.5208046,7.0916092 C55.8029885,7.0916092 59.0850575,7.09390805 62.3695402,7.08988506 C62.3718391,7.75333333 62.3718391,8.41724138 62.3695402,9.08229885 C59.8865517,9.07896552 57.4025287,9.08057471 54.9162069,9.08057471 L54.9162069,25.2597701 L52.5208046,25.2597701 C52.5208046,19.2035632 52.5208046,13.1478161 52.5208046,7.0916092 Z M55.7288506,14.7749425 L61.9665517,14.7749425 C61.9665517,15.4382759 61.9665517,16.0998851 61.9654023,16.7633333 L55.7288506,16.7633333 L55.7288506,14.7749425 Z M55.7288506,23.2711494 L62.7803448,23.2711494 L62.7803448,25.2597701 L55.7288506,25.2597701 L55.7288506,23.2711494 Z M26.3729885,29.5156322 C27.5056322,28.1648276 29.508046,27.9695402 31.0935632,28.5357471 C31.0127586,28.8012644 30.9352874,29.0695402 30.8589655,29.336092 C29.6517241,28.8478161 28.0628736,28.9185057 27.1654023,29.9642529 C26.2803448,31.1103448 26.25,32.8505747 27.0509195,34.0494253 C27.921954,35.2297701 29.6208046,35.2624138 30.8848276,34.7801149 C30.9465517,35.0434483 31.0049425,35.3077011 31.0666667,35.5732184 C29.6989655,35.9997701 28.0662069,36.0810345 26.8573563,35.1971264 C25.1624138,33.886092 25.0726437,31.1314943 26.3729885,29.5156322 Z M31.5504598,28.378046 L32.4989655,28.378046 C32.4989655,29.4028736 32.4978161,30.4265517 32.4989655,31.4513793 L36.1144828,31.4513793 C36.1144828,30.4281609 36.1167816,29.4028736 36.1133333,28.3795402 C36.4298851,28.377931 36.7464368,28.377931 37.0629885,28.377931 C37.0629885,30.8327586 37.0618391,33.2881609 37.0629885,35.7452874 C36.7475862,35.7429885 36.4298851,35.7429885 36.1144828,35.7452874 C36.1144828,34.5845977 36.1167816,33.4235632 36.1144828,32.2651724 L32.4989655,32.2651724 C32.4978161,33.4235632 32.4989655,34.5847126 32.4989655,35.7452874 C32.1824138,35.7429885 31.8647126,35.7429885 31.5504598,35.7452874 C31.5527586,33.29 31.5504598,30.8329885 31.5504598,28.378046 Z M39.996092,28.378046 C40.3766667,28.378046 40.7571264,28.378046 41.1377011,28.3796552 C41.9694253,30.8386207 42.8281609,33.2882759 43.6554023,35.7487356 C43.3096552,35.7454023 42.9718391,35.7416092 42.6282759,35.7318391 C42.3712644,34.9512644 42.1018391,34.1749425 41.8470115,33.3948276 C40.9635632,33.4033333 40.0813793,33.3708046 39.197931,33.416092 C38.988046,34.2013793 38.7141379,34.968046 38.4616092,35.7414943 C38.1337931,35.7431034 37.8027586,35.7452874 37.4772414,35.7464368 C38.3134483,33.29 39.1587356,30.8351724 39.996092,28.378046 Z M40.5326437,29.212069 C40.2285057,30.3843678 39.8165517,31.5271264 39.4236782,32.6731034 C40.1701149,32.6714943 40.9165517,32.6714943 41.6641379,32.6714943 C41.2666667,31.5255172 40.8402299,30.3862069 40.5326437,29.212069 Z M44.0706897,28.378046 L45.0168966,28.378046 L45.0168966,34.9311494 C46.072069,34.9327586 47.1249425,34.9311494 48.1834483,34.9311494 C48.1811494,35.2027586 48.1834483,35.4737931 48.1834483,35.7454023 L44.0695402,35.7454023 C44.0695402,33.2882759 44.0695402,30.8329885 44.0706897,28.378046 Z M48.5426437,28.3796552 C48.8591954,28.378046 49.1745977,28.3763218 49.49,28.3763218 C49.4911494,30.5618391 49.49,32.747931 49.4911494,34.9311494 C50.5473563,34.9311494 51.6003448,34.9327586 52.6532184,34.9311494 C52.6532184,35.2027586 52.6532184,35.4721839 52.6565517,35.7454023 C51.285977,35.7454023 49.9143678,35.7465517 48.5426437,35.7454023 C48.5426437,33.29 48.5426437,30.8351724 48.5426437,28.3796552 Z M53.0628736,28.378046 C54.3896552,28.3796552 55.7152874,28.3728736 57.042069,28.3813793 C57.042069,28.5844828 57.0398851,28.9890805 57.0398851,29.1918391 C56.0273563,29.1918391 55.0194253,29.19 54.0113793,29.1918391 C54.0113793,29.9601149 54.0090805,30.7285057 54.0113793,31.4967816 C54.9610345,31.4967816 55.9105747,31.4967816 56.858046,31.4986207 L56.858046,32.2652874 L54.0113793,32.2652874 C54.0090805,33.1542529 54.0113793,34.0421839 54.0113793,34.9311494 C55.0821839,34.9311494 56.1508046,34.9293103 57.2205747,34.9327586 C57.2205747,35.2028736 57.2172414,35.4737931 57.2205747,35.7454023 L53.0628736,35.7454023 L53.0628736,28.378046 Z M57.7627586,28.3762069 C58.1252874,28.3745977 58.4889655,28.378046 58.8516092,28.3981609 C60.0516092,30.4516092 61.5028736,32.3643678 62.5109195,34.528046 C62.3806897,32.48 62.4211494,30.428046 62.4178161,28.377931 L63.3236782,28.377931 L63.3236782,35.7452874 L62.3549425,35.7452874 C61.1078161,33.6855172 59.7047126,31.7151724 58.6204598,29.5621839 C58.69,31.6212644 58.661954,33.683908 58.6664368,35.7452874 C58.3622989,35.7429885 58.0636782,35.7452874 57.7628736,35.7452874 C57.7650575,33.2882759 57.7627586,30.8311494 57.7627586,28.3762069 Z M65.6358621,28.8337931 C66.8683908,28.1378161 68.3836782,28.1648276 69.7026437,28.5845977 C69.6206897,28.8533333 69.5421839,29.1249425 69.4612644,29.3943678 C68.3690805,28.9673563 67.0434483,28.9381609 66.0309195,29.5802299 C64.6334483,30.5421839 64.5267816,32.6787356 65.4248276,34.0128736 C66.2150575,35.11 67.7663218,35.2555172 68.9729885,34.8843678 C68.9696552,34.1306897 68.9718391,33.3786207 68.9718391,32.6265517 L67.4789655,32.6265517 L67.4789655,31.858046 L69.9193103,31.858046 C69.9193103,33.0552874 69.9193103,34.2496552 69.9181609,35.443908 C68.5845977,35.8547126 67.083908,36.0358621 65.7727586,35.4645977 C63.2472414,34.3081609 63.2293103,30.1391954 65.6358621,28.8337931 Z M70.6881609,28.378046 L74.6651724,28.378046 L74.6651724,29.1918391 L71.6366667,29.1918391 L71.6366667,31.4967816 C72.5863218,31.4967816 73.5325287,31.4986207 74.4843678,31.4967816 C74.4843678,31.7516092 74.4843678,32.0081609 74.4855172,32.2652874 L71.6366667,32.2652874 L71.6366667,34.9311494 L74.8470115,34.9311494 C74.8447126,35.2010345 74.8447126,35.4721839 74.8470115,35.7454023 L70.6881609,35.7454023 L70.6881609,28.378046 Z" id="Shape" fill="#14160E" sketch:type="MSShapeGroup"></path>
        </g>
    </g>
</svg>