<svg width="32" height="140" viewBox="0 0 32 140" xmlns="http://www.w3.org/2000/svg">
    <title>
        exclamation-mark
    </title>
    <path d="M29.016 14.81c0 2.017-.065 3.84-.196 5.467-.13 1.628-.39 4.2-.78 7.715L20.42 91.957h-8.79L4.017 27.992c-.65-5.73-.977-10.123-.977-13.183 0-4.95 1.3-8.595 3.905-10.94C9.55 1.528 12.512.356 15.832.356c3.776 0 6.917 1.19 9.424 3.565 2.506 2.376 3.76 6.006 3.76 10.89zm2.343 109.178c0 4.297-1.498 7.91-4.493 10.84-2.995 2.93-6.608 4.395-10.84 4.395-4.166 0-7.747-1.465-10.742-4.395-2.995-2.93-4.492-6.543-4.492-10.84s1.465-7.942 4.394-10.937c2.93-2.994 6.543-4.49 10.84-4.49s7.927 1.48 10.89 4.442c2.96 2.962 4.442 6.624 4.442 10.986z" fill="#BAE6FF" fill-rule="evenodd"/>
</svg>
