<svg width="231" height="40" viewBox="0 0 231 40" xmlns="http://www.w3.org/2000/svg">
    <title>
        realsense
    </title>
    <g fill="none" fill-rule="evenodd">
        <path d="M52.4 10.147c0-.148-.088-.196-.29-.196h-.193v.424l.192.006c.202 0 .29-.066.29-.208v-.025zm.303 1.057h-.23c-.02 0-.04-.013-.047-.03l-.317-.53c-.004-.012-.032-.025-.044-.025h-.138v.527c0 .027-.02.057-.057.057h-.206c-.03 0-.05-.03-.05-.057V9.812c0-.077.025-.11.095-.12.07-.01.268-.015.378-.015.38 0 .61.113.61.47v.025c0 .223-.11.34-.28.396l.325.55c.004.01.008.03.008.04 0 .02-.01.046-.047.046zm-.548-1.768c-.564 0-1.02.465-1.02 1.03s.456 1.022 1.02 1.022c.566 0 1.028-.457 1.028-1.02 0-.567-.462-1.032-1.028-1.032zm0 2.265c-.685 0-1.232-.553-1.232-1.233s.547-1.236 1.232-1.236c.683 0 1.24.556 1.24 1.237 0 .68-.557 1.234-1.24 1.234zm-31.952 5.063c.902 0 1.278.446 1.278 1.17v8.51h3.077V17.92c0-1.73-.92-3.637-3.622-3.637l-6.358-.005v12.165h3.078v-9.68h2.548zm18.4-.144c-1.053 0-1.867.54-2.206 1.275-.203.438-.27.778-.293 1.318h4.736c-.057-1.318-.655-2.594-2.237-2.594zm-2.5 4.69c0 1.577.978 2.735 2.73 2.735 1.358 0 2.036-.377 2.822-1.158l1.902 1.814c-1.218 1.205-2.496 1.937-4.75 1.937-2.948 0-5.77-1.61-5.77-6.298 0-4.003 2.466-6.27 5.7-6.27 3.284 0 5.178 2.653 5.178 6.13v1.11h-7.81zm-5.667 5.115h1.82V23.86h-1.25c-.732 0-1.067-.393-1.067-1.098v-6h2.315V14.28H29.94V10.96h-3.08v11.996c0 1.722 1.066 3.47 3.576 3.47zM8.733 12.595h3.1V9.65h-3.1v2.945zm3.108 1.683H8.734l-.004 9.035c0 1.622.79 3.034 3.11 3.256V14.277zM48.814 9.23h-3.106v13.825c0 1.623.787 3.032 3.106 3.256V9.23zm10.85 1.996c-2.81-13.713-29.436-14.584-46.6-4.135v1.154c17.143-8.81 41.46-8.76 43.678 3.874.74 4.178-1.612 8.533-5.817 11.037v3.274c5.06-1.854 10.25-7.854 8.74-15.204zm-31.196 24c-11.844 1.096-24.186-.624-25.913-9.88-.847-4.56 1.235-9.4 3.99-12.403v-1.61C1.58 15.69-1.112 21.202.44 27.714c1.977 8.35 12.57 13.08 28.737 11.508 6.4-.62 14.77-2.68 20.595-5.874v-4.54c-5.286 3.147-14.023 5.747-21.305 6.42zm100.056-7.738h9.83v2.363h-12.64V9.23h2.81V27.49zm-18.828-5.647h7.14l-3.585-9.652-3.555 9.653zm7.98 2.3h-8.818l-2.093 5.71h-2.718l7.89-20.62h2.898l7.89 20.62h-2.96l-2.09-5.71zm-26.24-3.493v6.84h10.46v2.364h-13.27V9.23h13.27v2.36h-10.46v6.695h8.785v2.362h-8.785zm-10.1-5.438c0-1.257-.36-2.174-1.077-2.753-.715-.578-1.843-.867-3.377-.867h-3.883v7.44h3.794c1.416 0 2.527-.305 3.335-.924.806-.617 1.21-1.586 1.21-2.897zm2.808-.093c0 .778-.118 1.494-.36 2.152-.238.657-.58 1.24-1.028 1.747-.45.508-.983.927-1.598 1.255-.62.33-1.297.553-2.034.67l6.455 8.91H82.2l-5.167-7.563c-.26-.38-.51-.633-.75-.76-.238-.133-.586-.195-1.044-.195h-2.243v8.516h-2.69V9.23h6.726c2.23 0 3.972.504 5.228 1.51 1.255 1.005 1.883 2.465 1.883 4.377z" fill="#127CC2"/>
        <path d="M227.916 11.59V9.23h.546l.708 1.33.686-1.33h.544v2.36h-.473V9.932l-.547 1.1h-.43l-.56-1.05v1.608h-.474zm-1.772 0V9.65h-.823v-.42h2.14v.42h-.817v1.94h-.5zm-3.78 26.048v1.78h-.628v-1.78l-1.627-2.836h.69l1.27 2.287 1.264-2.288h.67l-1.64 2.836zm-7.827 1.31c.292 0 .534-.03.73-.092v-1.272h-1.062v-.507h1.66v2.146c-.082.05-.176.092-.287.13-.107.034-.225.064-.353.088-.128.025-.258.045-.396.057-.135.014-.266.02-.392.02-.348 0-.663-.05-.947-.152-.283-.104-.525-.255-.73-.46-.2-.203-.36-.455-.468-.758-.108-.303-.163-.654-.163-1.05 0-.384.054-.725.162-1.02.11-.298.267-.55.468-.753.2-.207.44-.36.724-.465.284-.107.6-.158.947-.158.28 0 .537.033.775.103.24.07.442.17.613.304l-.282.475c-.303-.21-.66-.314-1.072-.314-.545 0-.958.156-1.247.47-.288.31-.433.77-.433 1.375 0 1.223.584 1.834 1.753 1.834zM204.03 37.11c0 .583.137 1.037.407 1.358.27.32.64.48 1.115.48.473 0 .842-.16 1.114-.48.27-.32.404-.775.404-1.358 0-.584-.134-1.037-.404-1.36-.272-.32-.64-.48-1.114-.48-.475 0-.845.16-1.115.48-.27.323-.406.776-.406 1.36zm-.655 0c0-.365.052-.7.154-.996.104-.3.248-.553.437-.76.19-.208.418-.367.688-.482.268-.115.565-.17.897-.17.33 0 .63.055.897.17.265.115.493.274.684.483.19.206.335.458.437.76.105.296.156.63.156.995 0 .37-.05.703-.155 1-.1.297-.247.55-.436.755-.19.208-.42.37-.685.483-.27.114-.57.17-.898.17-.332 0-.63-.056-.897-.17-.27-.113-.498-.275-.688-.483-.19-.206-.333-.458-.438-.756-.103-.297-.155-.63-.155-1zm-6.29 1.78h2.202v.527h-2.83v-4.615h.628v4.087zm-8.882-1.78c0 .583.135 1.037.404 1.358.27.32.64.48 1.114.48.473 0 .845-.16 1.117-.48.27-.32.404-.775.404-1.358 0-.584-.133-1.037-.403-1.36-.272-.32-.644-.48-1.116-.48-.472 0-.842.16-1.113.48-.27.323-.404.776-.404 1.36zm-.656 0c0-.365.05-.7.152-.996.103-.3.25-.553.44-.76.19-.208.418-.367.687-.482.265-.115.564-.17.894-.17.333 0 .633.055.898.17.27.115.498.274.687.483.19.206.336.458.436.76.106.296.157.63.157.995 0 .37-.05.703-.156 1-.1.297-.245.55-.435.755-.19.208-.418.37-.687.483-.265.114-.565.17-.897.17-.33 0-.628-.056-.893-.17-.27-.113-.498-.275-.688-.483-.19-.206-.337-.458-.44-.756-.103-.297-.153-.63-.153-1zm-7.418-2.308l2.256 3.7v-3.7h.6v4.615h-.68l-2.256-3.67v3.67h-.603v-4.615h.682zm-6.5 4.615v-2.074h-2.277v2.074h-.63v-4.615h.63v2.015h2.276v-2.015h.627v4.615h-.628zm-7.467-.354c-.16.14-.36.25-.596.333-.238.082-.508.12-.814.12-.37 0-.693-.06-.966-.19-.27-.125-.5-.3-.68-.517-.18-.22-.314-.476-.4-.77-.086-.295-.13-.61-.13-.944 0-.38.05-.716.156-1.012.106-.297.254-.55.45-.755.192-.204.425-.36.697-.47.273-.105.577-.158.91-.158.283 0 .533.038.755.11.22.074.408.175.572.305l-.29.468c-.14-.102-.293-.182-.454-.234-.16-.053-.346-.08-.554-.08-.5 0-.89.157-1.17.476-.28.315-.418.768-.418 1.357 0 .594.14 1.05.42 1.368.278.32.654.48 1.133.48.218 0 .417-.03.598-.09.18-.062.342-.15.486-.266l.293.47zm-10.64-1.706v1.532h2.34v.527h-2.97v-4.615h2.97v.527h-2.34v1.5h1.967v.527h-1.967zm-6.768-2.028v4.087h-.63V35.33h-1.586V34.8h3.79v.527h-1.575zm-2.354-8.377c-.88.595-2.072.894-3.588.894-.338 0-.667-.022-.99-.053V20.36l2.845.764c.993.278 1.752.646 2.27 1.105.517.458.777 1.135.777 2.03 0 1.197-.44 2.095-1.313 2.693zm3.796-4.902c-.24-.577-.573-1.083-1.003-1.507-.43-.43-.94-.79-1.54-1.078-.597-.288-1.252-.532-1.97-.732l-3.796-1.075c-.024-.007-.042-.015-.064-.02V11.41c.542-.117 1.14-.18 1.796-.18 2.01 0 3.756.507 5.23 1.525l1.194-1.973c-.894-.676-1.93-1.182-3.107-1.51-1.176-.328-2.36-.494-3.557-.494-.542 0-1.063.036-1.557.105V.103h-.63v39.31h.63V30.25c.374.03.754.05 1.14.05 1.214 0 2.295-.155 3.242-.463.946-.31 1.736-.738 2.377-1.288.635-.547 1.124-1.2 1.462-1.958.337-.755.51-1.593.51-2.51 0-.777-.122-1.453-.358-2.03zm63.35-1.403v6.84h10.457v2.364h-13.266V9.23h13.266v2.362h-10.458v6.69h8.788v2.365h-8.788zm-13.926-9.414c-1.374 0-2.5.258-3.376.776-.88.517-1.315 1.364-1.315 2.54 0 .697.21 1.31.626 1.837.42.53 1.197.952 2.33 1.27l3.797 1.076c.716.2 1.374.444 1.97.732.597.29 1.113.647 1.544 1.078.425.424.76.93 1 1.508.236.58.355 1.255.355 2.032 0 .917-.168 1.755-.507 2.51-.338.76-.825 1.41-1.464 1.957-.637.55-1.427.978-2.375 1.287-.946.308-2.026.462-3.242.462-1.433 0-2.806-.22-4.11-.66-1.305-.437-2.436-1.075-3.39-1.913l1.374-2c.897.695 1.832 1.226 2.81 1.584.976.358 2.03.537 3.168.537 1.512 0 2.708-.3 3.584-.894.875-.598 1.316-1.496 1.316-2.694 0-.895-.26-1.572-.78-2.03-.515-.46-1.273-.828-2.27-1.106l-3.885-1.045c-1.553-.42-2.727-1.073-3.524-1.96-.797-.885-1.196-2.017-1.196-3.39 0-.938.18-1.775.537-2.513.36-.736.86-1.358 1.51-1.866.648-.51 1.42-.896 2.317-1.165.894-.27 1.883-.405 2.957-.405 1.197 0 2.38.166 3.557.495 1.178.327 2.214.833 3.108 1.51l-1.194 1.972c-1.475-1.018-3.218-1.524-5.23-1.524zM174.936 9.23l10.073 16.525V9.23h2.687v20.62h-3.048l-10.07-16.407V29.85h-2.69V9.23h3.046zm-17.39 11.417v6.84h10.458v2.364h-13.268V9.23h13.268v2.362h-10.457v6.693h8.784v2.362h-8.783z" fill="#00ACEC"/>
    </g>
</svg>
