<?xml version="1.0" encoding="UTF-8"?><!DOCTYPE svg PUBLIC "-//W3C//DTD SVG 1.1//EN" "http://www.w3.org/Graphics/SVG/1.1/DTD/svg11.dtd"><svg xmlns="http://www.w3.org/2000/svg"><symbol id="icon-realsense" viewBox="0 0 346 60">
    <title>
        realsense
    </title>
    <g fill-rule="evenodd">
        <path d="M78.602 15.22c0-.222-.134-.294-.438-.294h-.288v.635c.043 0 .256.01.288.01.304 0 .438-.1.438-.312v-.038zm.452 1.586h-.345c-.032 0-.06-.02-.07-.045l-.476-.796c-.005-.016-.047-.035-.065-.035H77.89v.79c0 .04-.03.086-.083.086h-.31c-.045 0-.077-.045-.077-.086v-2.002c0-.115.04-.165.143-.18.11-.013.404-.022.57-.022.57 0 .914.17.914.704v.038c0 .335-.164.51-.42.594l.488.827c.005.014.012.04.012.055 0 .032-.018.07-.073.07zm-.82-2.652c-.848 0-1.53.698-1.53 1.546 0 .846.682 1.532 1.53 1.532.847 0 1.54-.686 1.54-1.532 0-.848-.693-1.546-1.54-1.546zm0 3.398c-1.03 0-1.85-.832-1.85-1.852s.82-1.854 1.85-1.854c1.023 0 1.858.833 1.858 1.854 0 1.02-.835 1.852-1.86 1.852zm-47.93 7.592c1.354 0 1.917.67 1.917 1.756v12.764h4.616V26.88c0-2.596-1.38-5.455-5.433-5.455l-9.538-.008v18.247h4.617v-14.52h3.823zm27.6-.216c-1.58 0-2.8.81-3.31 1.914-.303.658-.405 1.167-.438 1.978h7.104c-.086-1.978-.983-3.892-3.355-3.892zm-3.748 7.038c0 2.365 1.466 4.1 4.092 4.1 2.04 0 3.056-.564 4.235-1.735l2.853 2.72c-1.827 1.807-3.744 2.905-7.125 2.905-4.42 0-8.656-2.413-8.656-9.446 0-6.004 3.7-9.404 8.552-9.404 4.925 0 7.766 3.978 7.766 9.195v1.666H54.156zm-8.502 7.67h2.73V35.79H46.51c-1.1 0-1.6-.59-1.6-1.647v-9h3.473v-3.726H44.91v-4.975h-4.62v17.992c0 2.583 1.6 5.203 5.364 5.203zM13.1 18.893h4.648v-4.417h-4.65v4.417zm4.662 2.525H13.1l-.007 13.552c0 2.432 1.186 4.55 4.67 4.884V21.417zm55.457-7.57h-4.66V34.58c0 2.435 1.18 4.548 4.66 4.885v-25.62zm16.275 2.992c-4.217-20.57-44.155-21.877-69.9-6.204v1.73C45.31-.85 81.785-.772 85.11 18.176c1.11 6.268-2.418 12.8-8.726 16.557v4.91c7.59-2.78 15.374-11.78 13.11-22.804zm-46.794 36c-17.766 1.643-36.28-.937-38.87-14.82-1.27-6.843 1.853-14.1 5.988-18.606V17C2.368 23.536-1.67 31.803.658 41.57 3.626 54.092 19.514 61.187 43.766 58.83c9.598-.93 22.155-4.024 30.892-8.813v-6.81c-7.93 4.72-21.035 8.62-31.957 9.63zm150.085-11.608h14.746v3.544h-18.96v-30.93h4.215v27.386zm-28.243-8.47h10.71l-5.377-14.48-5.333 14.48zm11.97 3.45h-13.226l-3.14 8.564h-4.077l11.834-30.93h4.347l11.836 30.93h-4.44l-3.134-8.564zm-39.36-5.24v10.26h15.692v3.544H132.94v-30.93h19.904v3.54h-15.69v10.04h13.176v3.545h-13.177zm-15.15-8.16c0-1.883-.54-3.258-1.615-4.126-1.073-.867-2.764-1.3-5.066-1.3h-5.824v11.16h5.69c2.123 0 3.79-.46 5-1.387 1.21-.926 1.815-2.38 1.815-4.347zm4.213-.137c0 1.167-.177 2.242-.54 3.23-.357.985-.87 1.858-1.543 2.62-.674.763-1.474 1.39-2.397 1.883-.93.496-1.945.83-3.05 1.007l9.682 13.36h-5.065l-7.753-11.34c-.39-.568-.767-.95-1.125-1.142-.357-.197-.88-.29-1.567-.29h-3.362v12.773h-4.035v-30.93h10.09c3.343 0 5.957.755 7.84 2.263 1.882 1.507 2.825 3.697 2.825 6.565z"/>
        <path d="M341.874 17.385v-3.54h.82l1.06 1.994 1.03-1.994h.816v3.54h-.71v-2.488l-.82 1.648h-.645l-.842-1.575v2.415h-.71zm-2.658 0v-2.908h-1.235v-.63h3.208v.63h-1.224v2.908h-.748zm-5.67 39.072v2.67h-.942v-2.67l-2.44-4.254h1.034l1.907 3.43 1.896-3.43h1.005l-2.458 4.254zm-11.74 1.967c.438 0 .8-.045 1.096-.14v-1.908h-1.595v-.76h2.49v3.218c-.123.075-.264.138-.43.195-.16.05-.338.095-.53.132-.192.036-.387.065-.593.083-.202.02-.398.03-.587.03-.522 0-.995-.074-1.42-.228-.427-.155-.79-.382-1.095-.688-.304-.307-.54-.685-.704-1.14-.162-.454-.245-.98-.245-1.576 0-.575.083-1.086.245-1.53.164-.445.4-.822.702-1.128.3-.31.66-.54 1.086-.697.426-.16.9-.237 1.42-.237.417 0 .804.05 1.162.154.358.104.663.257.92.457l-.424.714c-.454-.315-.99-.47-1.608-.47-.818 0-1.437.23-1.87.7-.432.47-.65 1.155-.65 2.065 0 1.834.876 2.75 2.63 2.75zm-15.76-2.76c0 .876.204 1.557.61 2.038.404.482.96.722 1.672.722.71 0 1.263-.24 1.67-.722.406-.48.607-1.162.607-2.037 0-.876-.2-1.555-.606-2.038-.41-.483-.963-.72-1.672-.72-.712 0-1.268.237-1.673.72s-.608 1.162-.608 2.038zm-.984 0c0-.547.078-1.047.23-1.493.16-.45.375-.828.66-1.138.284-.313.625-.55 1.03-.724.403-.172.848-.255 1.346-.255.494 0 .943.083 1.346.255.398.173.74.41 1.027.724.284.31.504.687.657 1.14.156.445.232.945.232 1.493 0 .555-.077 1.055-.233 1.5-.153.446-.373.823-.656 1.132-.285.312-.628.555-1.026.725-.403.17-.852.254-1.346.254-.498 0-.943-.083-1.346-.254-.405-.17-.746-.413-1.03-.725-.285-.31-.5-.686-.66-1.133-.152-.444-.23-.944-.23-1.5zm-9.434 2.67h3.302v.792h-4.245v-6.923h.943v6.13zm-13.324-2.67c0 .876.203 1.557.606 2.038.407.482.962.722 1.67.722.71 0 1.268-.24 1.676-.722.405-.48.605-1.162.605-2.037 0-.876-.2-1.555-.604-2.038-.408-.483-.966-.72-1.675-.72-.708 0-1.263.237-1.67.72-.403.483-.606 1.162-.606 2.038zm-.984 0c0-.547.075-1.047.23-1.493.154-.45.375-.828.658-1.138.286-.313.63-.55 1.032-.724.398-.172.847-.255 1.34-.255.5 0 .95.083 1.347.255.404.173.747.41 1.03.724.286.31.505.687.655 1.14.157.445.234.945.234 1.493 0 .555-.077 1.055-.234 1.5-.15.446-.37.823-.654 1.132-.284.312-.627.555-1.03.725-.4.17-.85.254-1.347.254-.493 0-.942-.083-1.34-.254-.403-.17-.746-.413-1.032-.725-.283-.31-.504-.686-.66-1.133-.153-.444-.228-.944-.228-1.5zm-11.126-3.46l3.385 5.55v-5.55h.9v6.922h-1.022l-3.383-5.507v5.506h-.905v-6.923h1.024zm-9.75 6.922v-3.11h-3.415v3.11h-.944v-6.923h.943v3.022h3.413v-3.022h.943v6.923h-.943zm-11.2-.53c-.24.207-.54.374-.894.498-.357.123-.76.182-1.22.182-.557 0-1.04-.094-1.45-.286-.405-.19-.75-.45-1.018-.776-.27-.328-.473-.713-.603-1.154-.13-.442-.196-.914-.196-1.416 0-.57.078-1.074.236-1.518.158-.446.38-.823.673-1.132.29-.305.64-.54 1.047-.702.41-.16.866-.24 1.367-.24.423 0 .797.058 1.13.167.332.11.613.26.858.456l-.434.702c-.21-.154-.44-.273-.68-.35-.242-.082-.52-.12-.832-.12-.75 0-1.333.233-1.75.71-.422.474-.63 1.153-.63 2.036 0 .89.208 1.574.63 2.052.417.48.98.718 1.7.718.326 0 .625-.044.897-.136.27-.09.512-.22.728-.397l.442.705zm-15.96-2.56v2.297h3.512v.793h-4.455v-6.923h4.456v.79h-3.512v2.25h2.95v.793h-2.95zm-10.152-3.042v6.132h-.945v-6.132h-2.378v-.79h5.684v.79h-2.362zm-3.53-12.565c-1.32.892-3.11 1.34-5.384 1.34-.507 0-1-.032-1.484-.08V30.54L217 31.685c1.49.417 2.628.97 3.405 1.657.776.69 1.166 1.705 1.166 3.046 0 1.796-.66 3.142-1.97 4.04zm5.692-7.354c-.36-.866-.86-1.625-1.504-2.26-.644-.648-1.41-1.185-2.31-1.62-.896-.43-1.88-.797-2.957-1.096l-5.693-1.613c-.036-.01-.062-.022-.096-.032v-9.337c.813-.175 1.712-.27 2.694-.27 3.017 0 5.636.76 7.848 2.288l1.79-2.96c-1.34-1.014-2.895-1.773-4.66-2.264-1.764-.493-3.54-.742-5.336-.742-.813 0-1.595.054-2.336.157V.154h-.945V59.12h.944V45.373c.56.047 1.13.075 1.712.075 1.82 0 3.44-.23 4.862-.693 1.418-.463 2.603-1.107 3.565-1.93.953-.82 1.686-1.8 2.193-2.937.506-1.133.764-2.39.764-3.765 0-1.166-.182-2.18-.536-3.047zm95.023-2.105v10.26h15.688v3.546h-19.9v-30.93h19.9v3.542h-15.688v10.037H333.5v3.546h-13.183zM299.43 16.85c-2.06 0-3.752.386-5.064 1.164-1.318.776-1.972 2.047-1.972 3.81 0 1.046.314 1.966.94 2.756.63.794 1.795 1.428 3.497 1.907l5.694 1.613c1.075.3 2.062.665 2.957 1.097.895.436 1.67.97 2.315 1.618.638.636 1.14 1.395 1.5 2.26.355.87.533 1.882.533 3.048 0 1.375-.252 2.632-.76 3.765-.508 1.14-1.238 2.117-2.197 2.936-.955.824-2.14 1.468-3.562 1.93-1.42.463-3.04.694-4.863.694-2.15 0-4.21-.33-6.164-.987-1.958-.656-3.654-1.612-5.086-2.87l2.06-3c1.347 1.043 2.75 1.84 4.218 2.376 1.462.536 3.045.804 4.75.804 2.268 0 4.063-.448 5.377-1.34 1.312-.898 1.974-2.244 1.974-4.04 0-1.342-.39-2.358-1.17-3.047-.773-.688-1.91-1.24-3.406-1.657l-5.827-1.568c-2.33-.63-4.09-1.607-5.286-2.937-1.196-1.328-1.794-3.025-1.794-5.087 0-1.405.27-2.66.806-3.767.538-1.104 1.29-2.038 2.265-2.8.973-.765 2.13-1.345 3.476-1.748 1.34-.404 2.824-.608 4.435-.608 1.796 0 3.57.25 5.335.742 1.767.49 3.32 1.25 4.663 2.264l-1.792 2.96c-2.214-1.527-4.828-2.287-7.846-2.287zm-37.026-3.004l15.11 24.787V13.846h4.03v30.93h-4.57l-15.105-24.61v24.61h-4.036v-30.93h4.57zM236.32 30.97v10.26h15.686v3.546h-19.902v-30.93h19.902v3.542H236.32v10.04h13.176v3.543H236.32z"/>
    </g>
</symbol><symbol id="icon-webchallenge" viewBox="0 0 101 40">
    <title>
        webchallenge
    </title>
    <g fill-rule="evenodd">
        <path d="M.092 11.863C7.676 7.927 15.28 4.03 22.87.11c0 1.15-.002 2.3 0 3.45-5.936 2.963-11.854 5.956-17.787 8.923-.478.238-.966.46-1.42.744 6.41 3.175 12.79 6.41 19.207 9.567 0 1.155 0 2.31-.002 3.465-7.582-3.92-15.18-7.806-22.77-11.71-.012-.896-.003-1.793-.006-2.687z"/>
        <path d="M77.787 13.788c7.608 3.88 15.213 7.77 22.818 11.656 0 .94 0 1.88-.002 2.82C93 32.15 85.4 36.056 77.783 39.926c0-1.144.002-2.29 0-3.432 6.462-3.197 12.915-6.418 19.384-9.606-6.45-3.232-12.918-6.434-19.38-9.644-.004-1.152-.007-2.303 0-3.456z"/>
        <path d="M36.67 7.096c.962-.058 1.925-.056 2.887 0 0 3.704-.004 7.406.003 11.106.043 1.593.227 3.315 1.255 4.606 1.62 2.078 5.304 1.868 6.698-.365 1.053-1.625.996-3.64 1.024-5.5 0-3.283-.003-6.568 0-9.853.805.002 1.608.004 2.414-.002.006 3.944.006 7.886 0 11.83-.076 1.967-.613 4.05-2.04 5.485-1.227 1.265-3.026 1.82-4.755 1.854-1.568.055-3.214-.274-4.482-1.24-.7-.508-1.2-1.23-1.634-1.967-.71 1.41-2.06 2.445-3.57 2.87-1.8.52-3.783.477-5.528-.238-1.604-.688-2.75-2.19-3.22-3.848-.244-.95-.528-1.904-.52-2.893-.007-3.95-.007-7.9 0-11.852.824.004 1.646.008 2.47 0 .014 3.524.005 7.05.005 10.574.06 1.71.116 3.565 1.17 5.002 1.568 2.245 5.458 2.063 6.847-.284 1.07-1.728.976-3.845.975-5.798V7.096zm27.42.262c1.952-.373 3.96-.506 5.94-.322 1.34.117 2.713.537 3.68 1.513 1.097.977 1.4 2.598 1.067 3.986-.372 1.43-1.586 2.518-2.96 2.98 1.534.376 2.962 1.432 3.497 2.958.532 1.592.276 3.484-.814 4.786-.953 1.204-2.468 1.755-3.94 1.985-2.138.318-4.32.224-6.464-.014-.013-5.956-.004-11.914-.007-17.872zm2.394 1.6c0 1.938.004 3.876 0 5.815 1.643-.045 3.498.28 4.9-.796 1.483-1.013 1.54-3.57-.035-4.524-1.46-.857-3.253-.7-4.866-.495zm0 7.626c.004 2.303 0 4.607 0 6.91 1.73.162 3.638.266 5.176-.688 1.853-1.126 1.87-4.22.046-5.38-1.537-1.037-3.465-.835-5.222-.842zM52.52 7.092c3.283 0 6.565.002 9.85-.002.002.663.002 1.327 0 1.992-2.483-.003-4.967 0-7.454 0V25.26H52.52V7.092zm3.21 7.683h6.237c0 .663 0 1.325-.002 1.988H55.73v-1.988zm0 8.496h7.05v1.99h-7.05v-1.99zm-29.357 6.246c1.133-1.35 3.135-1.546 4.72-.98-.08.265-.158.534-.234.8-1.208-.488-2.797-.417-3.695.628-.885 1.146-.915 2.887-.114 4.085.872 1.18 2.57 1.212 3.835.73.062.263.12.528.182.793-1.368.427-3 .508-4.21-.376-1.695-1.31-1.784-4.066-.484-5.68zm5.177-1.138h.95c0 1.025-.002 2.05 0 3.073h3.614c0-1.022.003-2.047 0-3.07.316-.002.632-.002.95-.002 0 2.455-.002 4.91 0 7.367-.316-.002-.634-.002-.95 0 0-1.16.003-2.32 0-3.48H32.5c-.002 1.16 0 2.32 0 3.48-.318-.002-.635-.002-.95 0 .003-2.455 0-4.912 0-7.367zm8.446 0c.38 0 .76 0 1.142.002.83 2.46 1.69 4.908 2.517 7.37-.345-.005-.683-.008-1.027-.018-.257-.78-.526-1.557-.78-2.337-.884.008-1.767-.024-2.65.02-.21.786-.484 1.553-.736 2.326-.328.003-.66.005-.985.006.836-2.456 1.682-4.91 2.52-7.368zm.537.834c-.304 1.172-.716 2.315-1.11 3.46h2.24c-.396-1.146-.823-2.286-1.13-3.46zm3.538-.834h.947v6.553c1.055.003 2.108 0 3.166 0-.002.273 0 .544 0 .815H44.07v-7.367zm4.473.002c.316-.002.632-.004.947-.004v6.555c1.057 0 2.11.003 3.163 0 0 .273 0 .542.004.815-1.37 0-2.743.002-4.114 0V28.38zm4.52-.002c1.327.002 2.652-.005 3.98.003l-.003.812c-1.013 0-2.02-.002-3.03 0v2.305c.95 0 1.9 0 2.848.002v.765H54.01v2.666c1.072 0 2.14 0 3.21.003 0 .27-.003.54 0 .812h-4.157v-7.367zm4.7-.002c.362 0 .726.002 1.09.022 1.2 2.054 2.65 3.966 3.658 6.13-.13-2.048-.09-4.1-.092-6.15h.906v7.367h-.97c-1.246-2.06-2.65-4.03-3.734-6.183.07 2.06.042 4.122.046 6.183-.304-.002-.602 0-.903 0 .002-2.457 0-4.914 0-7.37zm7.873.458c1.232-.696 2.748-.67 4.067-.25-.082.27-.16.54-.242.81-1.09-.427-2.417-.456-3.43.186-1.397.962-1.503 3.1-.605 4.433.79 1.097 2.34 1.243 3.548.87-.003-.752 0-1.504 0-2.256h-1.494v-.77h2.44c0 1.198 0 2.393-.002 3.587-1.333.41-2.834.592-4.145.02-2.526-1.156-2.544-5.325-.137-6.63zm5.052-.456h3.977v.814h-3.028v2.305c.95 0 1.896.002 2.847 0 0 .255 0 .51.002.768h-2.85v2.666h3.21v.815H70.69v-7.367z"/>
    </g>
</symbol></svg>