<svg width="101" height="40" viewBox="0 0 101 40" xmlns="http://www.w3.org/2000/svg">
    <title>
        webchallenge
    </title>
    <g fill="none" fill-rule="evenodd">
        <path d="M.092 11.863C7.676 7.927 15.28 4.03 22.87.11c0 1.15-.002 2.3 0 3.45-5.936 2.963-11.854 5.956-17.787 8.923-.478.238-.966.46-1.42.744 6.41 3.175 12.79 6.41 19.207 9.567 0 1.155 0 2.31-.002 3.465-7.582-3.92-15.18-7.806-22.77-11.71-.012-.896-.003-1.793-.006-2.687z" fill="#78B4E5"/>
        <path d="M77.787 13.788c7.608 3.88 15.213 7.77 22.818 11.656 0 .94 0 1.88-.002 2.82C93 32.15 85.4 36.056 77.783 39.926c0-1.144.002-2.29 0-3.432 6.462-3.197 12.915-6.418 19.384-9.606-6.45-3.232-12.918-6.434-19.38-9.644-.004-1.152-.007-2.303 0-3.456z" fill="#78B4E5"/>
        <path d="M36.67 7.096c.962-.058 1.925-.056 2.887 0 0 3.704-.004 7.406.003 11.106.043 1.593.227 3.315 1.255 4.606 1.62 2.078 5.304 1.868 6.698-.365 1.053-1.625.996-3.64 1.024-5.5 0-3.283-.003-6.568 0-9.853.805.002 1.608.004 2.414-.002.006 3.944.006 7.886 0 11.83-.076 1.967-.613 4.05-2.04 5.485-1.227 1.265-3.026 1.82-4.755 1.854-1.568.055-3.214-.274-4.482-1.24-.7-.508-1.2-1.23-1.634-1.967-.71 1.41-2.06 2.445-3.57 2.87-1.8.52-3.783.477-5.528-.238-1.604-.688-2.75-2.19-3.22-3.848-.244-.95-.528-1.904-.52-2.893-.007-3.95-.007-7.9 0-11.852.824.004 1.646.008 2.47 0 .014 3.524.005 7.05.005 10.574.06 1.71.116 3.565 1.17 5.002 1.568 2.245 5.458 2.063 6.847-.284 1.07-1.728.976-3.845.975-5.798V7.096zm27.42.262c1.952-.373 3.96-.506 5.94-.322 1.34.117 2.713.537 3.68 1.513 1.097.977 1.4 2.598 1.067 3.986-.372 1.43-1.586 2.518-2.96 2.98 1.534.376 2.962 1.432 3.497 2.958.532 1.592.276 3.484-.814 4.786-.953 1.204-2.468 1.755-3.94 1.985-2.138.318-4.32.224-6.464-.014-.013-5.956-.004-11.914-.007-17.872zm2.394 1.6c0 1.938.004 3.876 0 5.815 1.643-.045 3.498.28 4.9-.796 1.483-1.013 1.54-3.57-.035-4.524-1.46-.857-3.253-.7-4.866-.495zm0 7.626c.004 2.303 0 4.607 0 6.91 1.73.162 3.638.266 5.176-.688 1.853-1.126 1.87-4.22.046-5.38-1.537-1.037-3.465-.835-5.222-.842zM52.52 7.092c3.283 0 6.565.002 9.85-.002.002.663.002 1.327 0 1.992-2.483-.003-4.967 0-7.454 0V25.26H52.52V7.092zm3.21 7.683h6.237c0 .663 0 1.325-.002 1.988H55.73v-1.988zm0 8.496h7.05v1.99h-7.05v-1.99zm-29.357 6.246c1.133-1.35 3.135-1.546 4.72-.98-.08.265-.158.534-.234.8-1.208-.488-2.797-.417-3.695.628-.885 1.146-.915 2.887-.114 4.085.872 1.18 2.57 1.212 3.835.73.062.263.12.528.182.793-1.368.427-3 .508-4.21-.376-1.695-1.31-1.784-4.066-.484-5.68zm5.177-1.138h.95c0 1.025-.002 2.05 0 3.073h3.614c0-1.022.003-2.047 0-3.07.316-.002.632-.002.95-.002 0 2.455-.002 4.91 0 7.367-.316-.002-.634-.002-.95 0 0-1.16.003-2.32 0-3.48H32.5c-.002 1.16 0 2.32 0 3.48-.318-.002-.635-.002-.95 0 .003-2.455 0-4.912 0-7.367zm8.446 0c.38 0 .76 0 1.142.002.83 2.46 1.69 4.908 2.517 7.37-.345-.005-.683-.008-1.027-.018-.257-.78-.526-1.557-.78-2.337-.884.008-1.767-.024-2.65.02-.21.786-.484 1.553-.736 2.326-.328.003-.66.005-.985.006.836-2.456 1.682-4.91 2.52-7.368zm.537.834c-.304 1.172-.716 2.315-1.11 3.46h2.24c-.396-1.146-.823-2.286-1.13-3.46zm3.538-.834h.947v6.553c1.055.003 2.108 0 3.166 0-.002.273 0 .544 0 .815H44.07v-7.367zm4.473.002c.316-.002.632-.004.947-.004v6.555c1.057 0 2.11.003 3.163 0 0 .273 0 .542.004.815-1.37 0-2.743.002-4.114 0V28.38zm4.52-.002c1.327.002 2.652-.005 3.98.003l-.003.812c-1.013 0-2.02-.002-3.03 0v2.305c.95 0 1.9 0 2.848.002v.765H54.01v2.666c1.072 0 2.14 0 3.21.003 0 .27-.003.54 0 .812h-4.157v-7.367zm4.7-.002c.362 0 .726.002 1.09.022 1.2 2.054 2.65 3.966 3.658 6.13-.13-2.048-.09-4.1-.092-6.15h.906v7.367h-.97c-1.246-2.06-2.65-4.03-3.734-6.183.07 2.06.042 4.122.046 6.183-.304-.002-.602 0-.903 0 .002-2.457 0-4.914 0-7.37zm7.873.458c1.232-.696 2.748-.67 4.067-.25-.082.27-.16.54-.242.81-1.09-.427-2.417-.456-3.43.186-1.397.962-1.503 3.1-.605 4.433.79 1.097 2.34 1.243 3.548.87-.003-.752 0-1.504 0-2.256h-1.494v-.77h2.44c0 1.198 0 2.393-.002 3.587-1.333.41-2.834.592-4.145.02-2.526-1.156-2.544-5.325-.137-6.63zm5.052-.456h3.977v.814h-3.028v2.305c.95 0 1.896.002 2.847 0 0 .255 0 .51.002.768h-2.85v2.666h3.21v.815H70.69v-7.367z" fill="#14160E"/>
    </g>
</svg>
