<?xml version="1.0" encoding="utf-8"?>
<!-- Generator: Adobe Illustrator 19.0.1, SVG Export Plug-In . SVG Version: 6.00 Build 0)  -->
<!DOCTYPE svg PUBLIC "-//W3C//DTD SVG 1.1//EN" "http://www.w3.org/Graphics/SVG/1.1/DTD/svg11.dtd" [
	<!ENTITY ns_extend "http://ns.adobe.com/Extensibility/1.0/">
	<!ENTITY ns_ai "http://ns.adobe.com/AdobeIllustrator/10.0/">
	<!ENTITY ns_graphs "http://ns.adobe.com/Graphs/1.0/">
	<!ENTITY ns_vars "http://ns.adobe.com/Variables/1.0/">
	<!ENTITY ns_imrep "http://ns.adobe.com/ImageReplacement/1.0/">
	<!ENTITY ns_sfw "http://ns.adobe.com/SaveForWeb/1.0/">
	<!ENTITY ns_custom "http://ns.adobe.com/GenericCustomNamespace/1.0/">
	<!ENTITY ns_adobe_xpath "http://ns.adobe.com/XPath/1.0/">
]>
<svg version="1.1" id="Слой_1" xmlns:x="&ns_extend;" xmlns:i="&ns_ai;" xmlns:graph="&ns_graphs;"
	 xmlns="http://www.w3.org/2000/svg" xmlns:xlink="http://www.w3.org/1999/xlink" x="0px" y="0px" width="992.126px"
	 height="992.125px" viewBox="0 0 992.126 992.125" enable-background="new 0 0 992.126 992.125" xml:space="preserve">
<metadata>
	<sfw  xmlns="&ns_sfw;">
		<slices></slices>
		<sliceSourceBounds  height="346.397" width="874.469" bottomLeftOrigin="true" y="-632.477" x="273.007"></sliceSourceBounds>
	</sfw>
</metadata>
<g>
	<g>
		<path fill="#78B4E5" d="M65.801,414.205c65.981-34.237,132.124-68.134,198.164-102.245c0.015,10.005-0.015,20.01,0.015,30.024
			c-51.65,25.762-103.145,51.807-154.761,77.617c-4.155,2.074-8.403,4.014-12.339,6.478c55.747,27.616,111.255,55.771,167.085,83.23
			c0,10.049,0,20.103-0.015,30.147c-65.962-34.096-132.075-67.908-198.105-101.883C65.747,429.79,65.83,421.988,65.801,414.205z"/>
		<path fill="#78B4E5" d="M741.75,430.952c66.19,33.754,132.353,67.615,198.515,101.408c0,8.184,0,16.357-0.02,24.541
			c-66.152,33.795-132.275,67.783-198.524,101.455c-0.01-9.955,0.01-19.912-0.01-29.854c56.22-27.822,112.362-55.844,168.642-83.574
			c-56.123-28.119-112.383-55.975-168.603-83.904C741.711,451.004,741.682,440.985,741.75,430.952z"/>
	</g>
	<g>
		<path fill="#14160E" d="M384.03,372.731c8.369-0.503,16.748-0.483,25.117,0.015c0.01,32.217-0.039,64.423,0.029,96.614
			c0.371,13.857,1.973,28.842,10.918,40.072c14.102,18.076,46.143,16.25,58.271-3.174c9.16-14.141,8.662-31.678,8.906-47.846
			c0-28.573-0.029-57.151,0-85.73c7.002,0.015,13.994,0.034,21.006-0.015c0.039,34.308,0.039,68.606,0,102.907
			c-0.674,17.125-5.342,35.238-17.754,47.729c-10.684,11.006-26.328,15.84-41.377,16.133c-13.643,0.475-27.959-2.383-38.994-10.795
			c-6.094-4.41-10.43-10.699-14.209-17.105c-6.172,12.275-17.92,21.269-31.045,24.98c-15.664,4.512-32.92,4.137-48.101-2.08
			c-13.955-5.99-23.926-19.053-28.008-33.48c-2.134-8.256-4.6-16.562-4.536-25.166c-0.054-34.379-0.054-68.742,0-103.122
			c7.173,0.029,14.326,0.063,21.504,0c0.107,30.654,0.029,61.321,0.029,91.995c0.518,14.873,1.011,31.01,10.185,43.51
			c13.638,19.535,47.48,17.953,59.57-2.467c9.316-15.037,8.486-33.449,8.477-50.441C384.03,427.765,384.02,400.255,384.03,372.731z"
			/>
		<g>
			<path fill="#14160E" d="M622.575,375.011c16.992-3.242,34.453-4.399,51.69-2.798c11.65,1.02,23.603,4.668,32.021,13.164
				c9.531,8.506,12.158,22.613,9.277,34.683c-3.242,12.45-13.799,21.907-25.762,25.931c13.35,3.272,25.772,12.457,30.43,25.729
				c4.629,13.855,2.402,30.311-7.08,41.643c-8.291,10.478-21.475,15.264-34.268,17.271c-18.613,2.768-37.598,1.947-56.25-0.127
				C622.526,478.686,622.604,426.851,622.575,375.011z M643.415,388.932c0,16.86,0.029,33.72,0,50.594
				c14.287-0.395,30.43,2.428,42.637-6.924c12.891-8.817,13.389-31.072-0.312-39.358
				C673.044,385.788,657.448,387.15,643.415,388.932z M643.415,455.278c0.029,20.039,0,40.082,0,60.115
				c15.058,1.416,31.65,2.32,45.029-5.977c16.123-9.799,16.26-36.707,0.4-46.818C675.466,453.585,658.698,455.346,643.415,455.278z"
				/>
		</g>
		<path fill="#14160E" d="M521.931,372.697c28.555,0,57.109,0.02,85.684-0.015c0.02,5.772,0.02,11.548,0,17.334
			c-21.602-0.029-43.213-0.015-64.844-0.015c0,46.913,0,93.841,0,140.759c-6.953,0-13.906,0-20.84,0
			C521.931,478.071,521.931,425.386,521.931,372.697z"/>
		<path fill="#14160E" d="M549.841,439.542c18.086,0,36.182,0,54.268,0c0,5.771,0,11.527-0.01,17.299c-18.076,0-36.172,0-54.258,0
			C549.841,451.069,549.841,445.313,549.841,439.542z"/>
		<path fill="#14160E" d="M549.841,513.459c20.44,0,40.889,0,61.348,0c0,5.772,0,11.529,0,17.301c-20.459,0-40.908,0-61.348,0
			C549.841,524.989,549.841,519.231,549.841,513.459z"/>
		<path fill="#14160E" d="M294.445,567.786c9.854-11.752,27.275-13.451,41.069-8.525c-0.703,2.31-1.377,4.644-2.041,6.963
			c-10.503-4.248-24.326-3.633-32.134,5.465c-7.7,9.971-7.964,25.111-0.996,35.541c7.578,10.269,22.358,10.553,33.355,6.357
			c0.537,2.291,1.045,4.59,1.582,6.9c-11.899,3.711-26.104,4.418-36.621-3.272C283.913,605.809,283.132,581.844,294.445,567.786z"/>
		<path fill="#14160E" d="M339.489,557.889c2.734,0,5.498,0,8.252,0c0,8.916-0.01,17.822,0,26.738c10.488,0,20.967,0,31.455,0
			c0-8.902,0.02-17.822-0.01-26.725c2.754-0.014,5.508-0.014,8.262-0.014c0,21.357-0.01,42.719,0,64.096
			c-2.744-0.02-5.508-0.02-8.252,0c0-10.098,0.02-20.199,0-30.277c-10.488,0-20.967,0-31.455,0c-0.01,10.078,0,20.18,0,30.277
			c-2.754-0.02-5.518-0.02-8.252,0C339.509,600.623,339.489,579.247,339.489,557.889z"/>
		<g>
			<path fill="#14160E" d="M412.966,557.889c3.311,0,6.621,0,9.932,0.014c7.236,21.393,14.707,42.705,21.904,64.111
				c-3.008-0.029-5.947-0.062-8.936-0.147c-2.236-6.791-4.58-13.545-6.797-20.332c-7.686,0.074-15.361-0.209-23.047,0.185
				c-1.826,6.832-4.209,13.502-6.406,20.231c-2.852,0.014-5.732,0.033-8.564,0.043C398.327,600.623,405.681,579.266,412.966,557.889
				z M417.634,565.145c-2.646,10.199-6.23,20.141-9.648,30.111c6.494-0.014,12.988-0.014,19.492-0.014
				C424.02,585.272,420.31,575.36,417.634,565.145z"/>
		</g>
		<path fill="#14160E" d="M448.415,557.889c2.734,0,5.488,0,8.232,0c0,18.998,0,38.017,0,57.012c9.18,0.014,18.34,0,27.549,0
			c-0.02,2.363,0,4.721,0,7.084c-11.934,0-23.867,0-35.791,0C448.405,600.608,448.405,579.247,448.415,557.889z"/>
		<path fill="#14160E" d="M487.321,557.903c2.754-0.014,5.498-0.029,8.242-0.029c0.01,19.014,0,38.033,0.01,57.027
			c9.189,0,18.35,0.014,27.51,0c0,2.363,0,4.707,0.029,7.084c-11.924,0-23.857,0.01-35.791,0
			C487.321,600.623,487.321,579.266,487.321,557.903z"/>
		<path fill="#14160E" d="M526.647,557.889c11.543,0.014,23.076-0.045,34.619,0.029c0,1.767-0.019,5.287-0.019,7.051
			c-8.809,0-17.578-0.016-26.348,0c0,6.684-0.02,13.369,0,20.053c8.262,0,16.523,0,24.766,0.016c0,1.664,0,5.004,0,6.67
			c-8.242,0-16.504,0-24.766,0c-0.02,7.734,0,15.459,0,23.193c9.316,0,18.613-0.016,27.92,0.014c0,2.35-0.029,4.707,0,7.07
			c-12.061,0-24.131,0-36.172,0C526.647,600.608,526.647,579.247,526.647,557.889z"/>
		<path fill="#14160E" d="M567.536,557.873c3.154-0.014,6.318,0.016,9.473,0.191c10.44,17.865,23.066,34.506,31.836,53.33
			c-1.133-17.818-0.781-35.67-0.81-53.506c2.617,0,5.225,0,7.881,0c0,21.357,0,42.719,0,64.096c-2.842,0-5.635,0-8.428,0
			c-10.85-17.92-23.057-35.062-32.49-53.793c0.605,17.914,0.361,35.859,0.4,53.793c-2.646-0.02-5.244,0-7.861,0
			C567.556,600.608,567.536,579.231,567.536,557.873z"/>
		<path fill="#14160E" d="M636.032,561.854c10.723-6.055,23.906-5.82,35.381-2.168c-0.713,2.338-1.396,4.701-2.1,7.045
			c-9.502-3.715-21.035-3.969-29.844,1.617c-12.158,8.369-13.086,26.957-5.273,38.564c6.875,9.545,20.371,10.811,30.869,7.582
			c-0.029-6.557-0.01-13.1-0.01-19.643c-4.326,0-8.652,0-12.988,0c0-2.236,0-4.453,0-6.686c7.08,0,14.17,0,21.231,0
			c0,10.416,0,20.807-0.01,31.197c-11.602,3.574-24.658,5.15-36.065,0.18C615.251,609.481,615.095,573.211,636.032,561.854z"/>
		<path fill="#14160E" d="M679.987,557.889c11.533,0,23.076,0,34.6,0c0,2.357,0,4.717,0,7.08c-8.799,0-17.559,0-26.348,0
			c0,6.684,0,13.369,0,20.053c8.262,0,16.494,0.016,24.775,0c0,2.217,0,4.449,0.01,6.686c-8.252,0-16.523,0-24.785,0
			c0,7.734,0,15.459,0,23.193c9.297,0,18.623,0,27.93,0c-0.02,2.348-0.02,4.707,0,7.084c-12.07,0-24.141,0-36.182,0
			C679.987,600.608,679.987,579.247,679.987,557.889z"/>
	</g>
</g>
</svg>
